<svg xmlns="http://www.w3.org/2000/svg" width="240" height="240" viewBox="0 0 100 100"><rect width="100" height="100" rx="24" fill="#89d9c3"></rect><g data-faceshape-face=""><g transform="translate(0 0)" data-faceshape-eyebrows="" opacity="1" fill="none" stroke="#182b35" stroke-width="3" stroke-linecap="round"><path d="M18 16 Q26 13 34 16" transform="rotate(20 26 16)"></path><path d="M66 16 Q74 13 82 16" transform="rotate(-20 74 16)"></path></g><g data-faceshape-eyes="" data-eye-variant="cartoon" fill="#182b35"><g transform="rotate(9 26 36)"><defs><clipPath id="fs-eye-_R_e_-0"><ellipse cx="26" cy="36" rx="12" ry="9.75"></ellipse></clipPath></defs><ellipse cx="26" cy="36" rx="12" ry="9.75" fill="white"></ellipse><g clip-path="url(#fs-eye-_R_e_-0)"><circle cx="27.2" cy="35.4" r="7.7700000000000005"></circle><circle cx="25.8" cy="31.799999999999997" r="2" fill="white"></circle></g></g><g transform="rotate(-9 74 36)"><defs><clipPath id="fs-eye-_R_e_-1"><ellipse cx="74" cy="36" rx="12" ry="9.75"></ellipse></clipPath></defs><ellipse cx="74" cy="36" rx="12" ry="9.75" fill="white"></ellipse><g clip-path="url(#fs-eye-_R_e_-1)"><circle cx="75.2" cy="35.4" r="7.7700000000000005"></circle><circle cx="73.8" cy="31.799999999999997" r="2" fill="white"></circle></g></g></g><g transform="translate(0 0)" data-faceshape-mouth="" data-mouth-variant="shark"><defs><clipPath id="fs-mouth-_R_i_"><path d="M35.7 68 Q50 64.75 64.3 68 Q50 64.75 35.7 68Z"></path></clipPath></defs><path d="M35.7 68 Q50 64.75 64.3 68 Q50 64.75 35.7 68Z" fill="none" stroke="#182b35" stroke-width="2.8" stroke-linejoin="round" stroke-linecap="round"></path></g></g></svg>