<svg xmlns="http://www.w3.org/2000/svg" width="240" height="240" viewBox="0 0 100 100"><rect width="100" height="100" rx="24" fill="#89d9c3"></rect><g data-faceshape-face=""><g transform="translate(0 0)" data-faceshape-eyebrows="" opacity="0.14166666666666666" fill="none" stroke="#182b35" stroke-width="3" stroke-linecap="round"><path d="M18 16 Q26 13 34 16" transform="rotate(2.833333333333333 26 16)"></path><path d="M66 16 Q74 13 82 16" transform="rotate(-2.833333333333333 74 16)"></path></g><g data-faceshape-eyes="" data-eye-variant="cartoon" fill="#182b35"><g transform="rotate(1.275 26 36)"><defs><clipPath id="fs-eye-_R_e_-0"><ellipse cx="26" cy="36" rx="12" ry="6.8062499999999995"></ellipse></clipPath></defs><ellipse cx="26" cy="36" rx="12" ry="6.8062499999999995" fill="white"></ellipse><g clip-path="url(#fs-eye-_R_e_-0)"><circle cx="27.2" cy="35.4" r="7.7700000000000005"></circle><circle cx="25.8" cy="31.799999999999997" r="2" fill="white"></circle></g></g><g transform="rotate(-1.275 74 36)"><defs><clipPath id="fs-eye-_R_e_-1"><ellipse cx="74" cy="36" rx="12" ry="6.8062499999999995"></ellipse></clipPath></defs><ellipse cx="74" cy="36" rx="12" ry="6.8062499999999995" fill="white"></ellipse><g clip-path="url(#fs-eye-_R_e_-1)"><circle cx="75.2" cy="35.4" r="7.7700000000000005"></circle><circle cx="73.8" cy="31.799999999999997" r="2" fill="white"></circle></g></g></g><g transform="translate(0 0)" data-faceshape-mouth="" data-mouth-variant="shark"><defs><clipPath id="fs-mouth-_R_i_"><path d="M30.979166666666664 64 Q50 64 69.02083333333334 64 Q50 96.10166666666666 30.979166666666664 64Z"></path></clipPath></defs><path d="M30.979166666666664 64 Q50 64 69.02083333333334 64 Q50 96.10166666666666 30.979166666666664 64Z" fill="#182b35" stroke="#182b35" stroke-width="2.8" stroke-linejoin="round" stroke-linecap="round"></path><g clip-path="url(#fs-mouth-_R_i_)"><ellipse cx="50" cy="79.05083333333333" rx="10.651666666666669" ry="3.6479166666666667" fill="#f18da3"></ellipse><g data-faceshape-shark-teeth="" fill="white"><path d="M37.44625 64 Q40.87 64 44.293749999999996 64 L40.87 69.83666666666667Z"></path><path d="M46.57625 64 Q50 64 53.42375 64 L50 69.83666666666667Z"></path><path d="M55.706250000000004 64 Q59.13 64 62.55375 64 L59.13 69.83666666666667Z"></path></g></g></g></g></svg>