<svg xmlns="http://www.w3.org/2000/svg" width="240" height="240" viewBox="0 0 100 100"><rect width="100" height="100" rx="24" fill="#89d9c3"></rect><g data-faceshape-face=""><g transform="translate(0.7200000000000001 -0.36000000000000004)" data-faceshape-eyebrows="" opacity="1" fill="none" stroke="#182b35" stroke-width="3" stroke-linecap="round"><path d="M18 28 Q26 25 34 28" transform="rotate(0 26 28)"></path><path d="M66 28 Q74 25 82 28" transform="rotate(0 74 28)"></path></g><g data-faceshape-eyes="" data-eye-variant="sly" fill="#182b35"><g data-eye-gaze="" transform="translate(0.7200000000000001 -0.36000000000000004) rotate(1.275 26 36)"><path d="M18 35 Q26 32.5 34 35 Q32 40.5375 26 40.5375 Q19 40.5375 18 35Z"></path><path d="M16 35 Q26 32.5 34 35" fill="none" stroke="#182b35" stroke-width="2.5" stroke-linecap="round"></path></g><g data-eye-gaze="" transform="translate(0.7200000000000001 -0.36000000000000004) rotate(-1.275 74 36)"><path d="M66 35 Q74 32.5 82 35 Q80 40.5375 74 40.5375 Q67 40.5375 66 35Z"></path><path d="M64 35 Q74 32.5 82 35" fill="none" stroke="#182b35" stroke-width="2.5" stroke-linecap="round"></path></g></g><g transform="translate(0.28800000000000003 -0.14400000000000002)" data-faceshape-mouth="" data-mouth-variant="smirk"><defs><clipPath id="fs-mouth-_R_i_"><path d="M36.166666666666664 68 Q50 64.14166666666667 63.833333333333336 65.395 Q50 87.48833333333333 36.166666666666664 68Z"></path></clipPath></defs><path d="M36.166666666666664 68 Q50 64.14166666666667 63.833333333333336 65.395 Q50 87.48833333333333 36.166666666666664 68Z" fill="#182b35" stroke="#182b35" stroke-width="2.8" stroke-linejoin="round" stroke-linecap="round"></path><g clip-path="url(#fs-mouth-_R_i_)"><ellipse cx="50" cy="76.34020833333334" rx="7.746666666666669" ry="3.0642500000000004" fill="#f18da3"></ellipse></g></g></g></svg>