<svg xmlns="http://www.w3.org/2000/svg" width="240" height="240" viewBox="0 0 100 100"><rect width="100" height="100" rx="24" fill="#89d9c3"></rect><g data-faceshape-face=""><g transform="translate(0.7200000000000001 -0.36000000000000004)" data-faceshape-eyebrows="" opacity="1" fill="none" stroke="#182b35" stroke-width="3" stroke-linecap="round"><path d="M18 28 Q26 25 34 28" transform="rotate(0 26 28)"></path><path d="M66 28 Q74 25 82 28" transform="rotate(0 74 28)"></path></g><g data-faceshape-eyes="" data-eye-variant="sly" fill="#182b35"><g data-eye-gaze="" transform="translate(0.7200000000000001 -0.36000000000000004) rotate(3.8249999999999997 26 36)"><path d="M18 35 Q26 32.5 34 35 Q32 40.1125 26 40.1125 Q19 40.1125 18 35Z"></path><path d="M16 35 Q26 32.5 34 35" fill="none" stroke="#182b35" stroke-width="2.5" stroke-linecap="round"></path></g><g data-eye-gaze="" transform="translate(0.7200000000000001 -0.36000000000000004) rotate(-3.8249999999999997 74 36)"><path d="M66 35 Q74 32.5 82 35 Q80 40.1125 74 40.1125 Q67 40.1125 66 35Z"></path><path d="M64 35 Q74 32.5 82 35" fill="none" stroke="#182b35" stroke-width="2.5" stroke-linecap="round"></path></g></g><g transform="translate(0.28800000000000003 -0.14400000000000002)" data-faceshape-mouth="" data-mouth-variant="smirk"><defs><clipPath id="fs-mouth-_R_i_"><path d="M37.3 68 Q50 64.42500000000001 62.7 66.585 Q50 80.065 37.3 68Z"></path></clipPath></defs><path d="M37.3 68 Q50 64.42500000000001 62.7 66.585 Q50 80.065 37.3 68Z" fill="#182b35" stroke="#182b35" stroke-width="2.8" stroke-linejoin="round" stroke-linecap="round"></path><g clip-path="url(#fs-mouth-_R_i_)"><ellipse cx="50" cy="72.720625" rx="7.112000000000001" ry="2.05275" fill="#f18da3"></ellipse></g></g></g></svg>